# xmcd CD database file
#
# Track frame offsets:
#	150
#	15805
#	30478
#	45822
#	59848
#	78818
#	96684
#	117645
#	138554
#	155027
#	171192
#	187565
#
# Disc length: 2681 seconds
#
# Revision: 54
# Processed by: cddbd v1.5.2PL0 Copyright (c) Steve Scherf et al.
# Submitted via: CDex 1.51
#
DISCID=930a770c
DTITLE=Katie Melua - Piece By Piece
DYEAR=2005
DGENRE=Blues
TTITLE0=Shy Boy
TTITLE1=Nine Million Bicycles
TTITLE2=Piece By Piece
TTITLE3=Halfway Up The Hindu Kush
TTITLE4=Blues In The Night
TTITLE5=Spider's Web
TTITLE6=Blue Shoes
TTITLE7=On The Road Again
TTITLE8=Thank You, Stars
TTITLE9=Just Like Heaven
TTITLE10=I Cried For You
TTITLE11=I Do Believe In Love
EXTD=\n YEAR: 2005
EXTT0=
EXTT1=
EXTT2=
EXTT3=
EXTT4=
EXTT5=
EXTT6=
EXTT7=
EXTT8=
EXTT9=
EXTT10=
EXTT11=
PLAYORDER=
